<svg width="340" height="178" viewBox="0 0 340 178" fill="none" xmlns="http://www.w3.org/2000/svg">
<g filter="url(#filter0_f_1393_2771)">
<path d="M268.576 87.0361L263.784 78.4269H263.671L256.009 87.0361H252.189L262.157 76.1091C262.112 76.0263 261.938 75.7228 261.637 75.1985C261.336 74.6742 260.959 74.0189 260.507 73.2325C260.07 72.4461 259.603 71.6182 259.106 70.7491C258.623 69.8661 258.156 69.0314 257.704 68.2449C257.267 67.4585 256.898 66.8032 256.597 66.2789C256.295 65.7546 256.122 65.4511 256.077 65.3683H259.671L264.372 74.0603H264.553L272.215 65.3683H276.058L265.999 76.254C266.045 76.3367 266.218 76.6403 266.519 77.1645C266.836 77.6888 267.22 78.3511 267.672 79.1513C268.124 79.9377 268.606 80.7724 269.119 81.6554C269.631 82.5246 270.113 83.3593 270.565 84.1595C271.017 84.9459 271.394 85.6082 271.695 86.1462C272.012 86.6705 272.193 86.9671 272.238 87.0361H268.576Z" fill="white" fill-opacity="0.3"/>
<path d="M231.484 79.1097C231.484 78.6958 231.507 78.213 231.552 77.6611C231.597 77.1092 231.673 76.5642 231.778 76.0262L232.366 72.9219C232.697 71.1835 233.315 69.7348 234.219 68.5759C235.139 67.4032 236.291 66.5202 237.678 65.9269C239.079 65.3199 240.654 65.0164 242.402 65.0164C244.255 65.0164 245.837 65.3268 247.148 65.9476C248.459 66.5685 249.454 67.3963 250.132 68.4311C250.825 69.4658 251.172 70.5833 251.172 71.7837C251.172 71.8389 251.172 71.8871 251.172 71.9285C251.172 71.9699 251.172 72.0113 251.172 72.0527H247.939C247.955 72.0113 247.962 71.9699 247.962 71.9285C247.962 71.8733 247.962 71.832 247.962 71.8044C247.962 71.1421 247.751 70.4868 247.329 69.8383C246.907 69.1899 246.282 68.6518 245.453 68.2241C244.639 67.7964 243.615 67.5826 242.379 67.5826C240.646 67.5826 239.162 68.1137 237.926 69.1761C236.691 70.2246 235.877 71.7354 235.485 73.7083L235.01 76.2124C234.92 76.6539 234.852 77.054 234.807 77.4127C234.777 77.7577 234.762 78.1026 234.762 78.4475C234.762 80.4066 235.282 81.945 236.321 83.0625C237.361 84.1663 238.883 84.7181 240.887 84.7181C242.439 84.7181 243.683 84.4146 244.617 83.8075C245.566 83.2005 246.154 82.4968 246.38 81.6966H249.68C249.469 82.828 248.957 83.8213 248.143 84.6767C247.329 85.5321 246.289 86.2013 245.024 86.6842C243.758 87.1533 242.326 87.3878 240.729 87.3878C237.956 87.3878 235.719 86.6428 234.016 85.1527C232.328 83.6627 231.484 81.6483 231.484 79.1097Z" fill="white" fill-opacity="0.3"/>
<path d="M219.392 84.8009C219.392 84.0421 219.663 83.4075 220.205 82.897C220.763 82.3865 221.433 82.1313 222.217 82.1313C223.046 82.1313 223.739 82.3865 224.296 82.897C224.854 83.4075 225.133 84.0421 225.133 84.8009C225.133 85.5184 224.854 86.1323 224.296 86.6428C223.739 87.1395 223.046 87.3878 222.217 87.3878C221.433 87.3878 220.763 87.1395 220.205 86.6428C219.663 86.1323 219.392 85.5184 219.392 84.8009Z" fill="white" fill-opacity="0.3"/>
<path d="M203.547 87.4499C201.558 87.4499 199.758 87.1257 198.145 86.4772C196.548 85.8288 195.282 84.8423 194.348 83.5178C193.414 82.1934 192.947 80.5239 192.947 78.5096C192.947 77.9853 192.977 77.4749 193.037 76.9782C193.097 76.4677 193.173 75.9917 193.263 75.5502L193.625 73.6256C194.031 71.5699 194.8 69.8729 195.93 68.5346C197.075 67.1825 198.469 66.1822 200.112 65.5338C201.769 64.8715 203.555 64.5404 205.469 64.5404C207.051 64.5404 208.475 64.775 209.741 65.244C211.022 65.6993 212.114 66.3547 213.018 67.2101C213.922 68.0655 214.593 69.0795 215.03 70.2523C215.482 71.4112 215.678 72.7012 215.617 74.1223C215.587 74.4258 215.535 74.8328 215.459 75.3433C215.384 75.8537 215.248 76.5229 215.052 77.3507H200.089C200.029 77.5714 199.984 77.8474 199.954 78.1785C199.923 78.4958 199.908 78.7718 199.908 79.0063C199.908 79.6548 200.044 80.2549 200.315 80.8068C200.601 81.3449 201.046 81.7795 201.649 82.1106C202.251 82.4417 203.028 82.6073 203.977 82.6073C204.64 82.6073 205.235 82.5176 205.763 82.3382C206.305 82.1589 206.75 81.9036 207.096 81.5725C207.458 81.2414 207.699 80.8413 207.819 80.3722H214.555C214.389 81.6277 213.839 82.7935 212.905 83.8697C211.986 84.932 210.728 85.7943 209.13 86.4566C207.548 87.1188 205.687 87.4499 203.547 87.4499ZM208.746 73.729C208.761 73.6049 208.776 73.4876 208.791 73.3772C208.806 73.2669 208.814 73.1634 208.814 73.0668C208.904 72.377 208.837 71.7492 208.611 71.1835C208.384 70.6041 207.993 70.1488 207.435 69.8177C206.893 69.4727 206.192 69.3003 205.333 69.3003C204.625 69.3003 203.977 69.4314 203.389 69.6935C202.817 69.9556 202.327 70.3557 201.92 70.8938C201.513 71.4319 201.204 72.0941 200.993 72.8805C200.963 73.0185 200.933 73.1634 200.903 73.3151C200.873 73.4531 200.835 73.5911 200.79 73.729H208.746Z" fill="white" fill-opacity="0.3"/>
<path d="M163.901 87.0362L168.128 64.9338H175.225L174.57 68.2864H174.954C175.497 67.2792 176.318 66.4169 177.418 65.6995C178.533 64.9683 179.995 64.6027 181.803 64.6027C183.355 64.6027 184.673 64.8924 185.758 65.4719C186.843 66.0513 187.665 66.8446 188.222 67.8518C188.78 68.8452 189.058 69.9834 189.058 71.2665C189.058 71.9701 188.998 72.6945 188.878 73.4395C188.772 74.1845 188.659 74.8399 188.539 75.4055L186.301 87.0362H179.068L181.328 75.0951C181.388 74.7778 181.441 74.4191 181.486 74.0189C181.532 73.605 181.554 73.2463 181.554 72.9428C181.554 71.9218 181.253 71.1285 180.65 70.5629C180.047 69.9834 179.279 69.6937 178.345 69.6937C177.455 69.6937 176.687 69.8868 176.039 70.2731C175.391 70.6594 174.856 71.2182 174.434 71.9494C174.027 72.6807 173.726 73.5637 173.53 74.5984L171.134 87.0362H163.901Z" fill="white" fill-opacity="0.3"/>
<path d="M145.186 87.3673C143.845 87.3673 142.632 87.1259 141.547 86.643C140.462 86.1463 139.603 85.4289 138.97 84.4907C138.337 83.5525 138.021 82.4212 138.021 81.0967C138.021 81.0415 138.021 80.9863 138.021 80.9311C138.036 80.8621 138.043 80.8001 138.043 80.7449C138.104 79.241 138.556 77.9993 139.4 77.0197C140.258 76.0264 141.419 75.2814 142.88 74.7847C144.357 74.288 146.045 74.0396 147.944 74.0396H153.436L153.73 72.5082C153.745 72.4254 153.753 72.3219 153.753 72.1978C153.768 72.0736 153.775 71.9563 153.775 71.846C153.775 71.4045 153.655 70.9906 153.413 70.6043C153.172 70.2179 152.811 69.9144 152.329 69.6937C151.861 69.4591 151.266 69.3418 150.543 69.3418C149.94 69.3418 149.413 69.4246 148.961 69.5902C148.524 69.7558 148.162 69.9834 147.876 70.2731C147.589 70.5629 147.394 70.9009 147.288 71.2872H140.53C140.695 70.1559 141.178 69.0797 141.976 68.0587C142.775 67.0378 143.913 66.21 145.389 65.5753C146.881 64.9269 148.75 64.6027 150.995 64.6027C152.984 64.6027 154.702 64.8855 156.148 65.4512C157.61 66.0168 158.74 66.8446 159.539 67.9346C160.338 69.0245 160.737 70.3697 160.737 71.9701C160.737 72.2599 160.714 72.591 160.669 72.9635C160.624 73.336 160.564 73.7085 160.488 74.081L157.979 87.0362H151.244L151.809 84.2217H151.447C151.161 84.7321 150.739 85.2288 150.181 85.7117C149.639 86.1946 148.953 86.5947 148.124 86.912C147.296 87.2155 146.316 87.3673 145.186 87.3673ZM145.209 80.2689C145.209 80.7656 145.337 81.2002 145.593 81.5727C145.849 81.9452 146.203 82.2418 146.655 82.4626C147.107 82.6695 147.627 82.773 148.215 82.773C149.194 82.773 150.076 82.5109 150.859 81.9866C151.643 81.4485 152.118 80.7587 152.283 79.9171L152.735 77.6199H148.915C147.71 77.6199 146.791 77.8751 146.158 78.3856C145.525 78.8961 145.209 79.5239 145.209 80.2689Z" fill="white" fill-opacity="0.3"/>
<path d="M124.48 87.036L130.199 57.2971H137.432L131.691 87.036H124.48Z" fill="white" fill-opacity="0.3"/>
<path d="M111.348 65.2648L112.411 59.8013H119.35L118.31 65.2648H123.283L122.311 70.2109H117.451L115.801 78.8408C115.726 79.2685 115.673 79.5927 115.643 79.8134C115.613 80.0204 115.598 80.1929 115.598 80.3308C115.598 81.0621 115.824 81.5863 116.276 81.9037C116.743 82.221 117.436 82.3796 118.355 82.3796C118.777 82.3796 119.184 82.359 119.576 82.3176C119.968 82.2762 120.269 82.2417 120.48 82.2141L119.576 86.8705C119.275 86.9395 118.785 87.0085 118.107 87.0774C117.429 87.1464 116.668 87.1809 115.824 87.1809C113.292 87.1809 111.371 86.7946 110.06 86.022C108.764 85.2494 108.116 84.056 108.116 82.4417C108.116 81.8761 108.192 81.2138 108.342 80.455L110.331 70.2109H106.918L107.89 65.2648H111.348Z" fill="white" fill-opacity="0.3"/>
<path d="M83.4793 71.6181C83.4793 70.2523 83.8485 69.0381 84.5869 67.9758C85.3252 66.9134 86.4252 66.0787 87.8869 65.4717C89.3637 64.8508 91.1945 64.5404 93.3795 64.5404C95.3535 64.5404 97.0864 64.8163 98.5782 65.3682C100.085 65.9063 101.253 66.6513 102.082 67.6033C102.91 68.5553 103.325 69.6383 103.325 70.8524C103.325 70.9628 103.317 71.0939 103.302 71.2456C103.302 71.3836 103.295 71.4871 103.28 71.5561H97.0638C97.0789 71.5147 97.0864 71.4595 97.0864 71.3905C97.0864 71.3077 97.0864 71.2456 97.0864 71.2042C97.0864 70.8317 96.9432 70.473 96.6569 70.1281C96.3857 69.7694 95.9864 69.4727 95.459 69.2382C94.9316 69.0037 94.2836 68.8864 93.5151 68.8864C92.8219 68.8864 92.2343 68.983 91.7521 69.1761C91.2849 69.3693 90.9233 69.6314 90.6671 69.9625C90.426 70.2799 90.3055 70.6317 90.3055 71.018C90.3055 71.6112 90.5692 72.0665 91.0966 72.3839C91.624 72.7012 92.3021 72.9702 93.1308 73.191C93.9747 73.3979 94.8562 73.6394 95.7754 73.9153C96.9659 74.2464 98.0282 74.681 98.9625 75.2191C99.9118 75.7434 100.665 76.4125 101.223 77.2265C101.78 78.0267 102.059 79.027 102.059 80.2273C102.059 81.4414 101.765 82.5038 101.178 83.4144C100.59 84.325 99.7837 85.0838 98.759 85.6908C97.7494 86.2841 96.5967 86.7325 95.3008 87.036C94.0199 87.3257 92.6713 87.4706 91.2548 87.4706C89.9739 87.4706 88.7157 87.3326 87.4801 87.0567C86.2595 86.7808 85.1595 86.3669 84.18 85.815C83.2005 85.2631 82.417 84.5733 81.8293 83.7455C81.2416 82.9039 80.9478 81.9174 80.9478 80.7861C80.9478 80.6757 80.9553 80.5584 80.9704 80.4343C80.9854 80.2963 80.993 80.1859 80.993 80.1031H87.3897C87.3746 80.1307 87.367 80.1928 87.367 80.2894C87.3821 80.3722 87.3897 80.4481 87.3897 80.517C87.4349 81.0275 87.6308 81.4759 87.9773 81.8622C88.339 82.2347 88.8136 82.5245 89.4013 82.7314C89.989 82.9384 90.6596 83.0419 91.413 83.0419C92.1664 83.0419 92.7993 82.9453 93.3117 82.7521C93.8391 82.559 94.2384 82.2968 94.5096 81.9657C94.7809 81.6346 94.9165 81.2552 94.9165 80.8275C94.9165 80.3308 94.7281 79.9307 94.3514 79.6272C93.9747 79.3236 93.4548 79.0684 92.7918 78.8614C92.1438 78.6407 91.3904 78.4061 90.5315 78.1578C89.8233 77.9646 89.0547 77.7163 88.226 77.4128C87.4123 77.1092 86.6437 76.716 85.9204 76.2332C85.2122 75.7365 84.6245 75.1156 84.1574 74.3706C83.7053 73.6118 83.4793 72.6943 83.4793 71.6181Z" fill="white" fill-opacity="0.3"/>
<path d="M62.3224 87.3673C60.9813 87.3673 59.7683 87.1259 58.6833 86.643C57.5984 86.1463 56.7394 85.4289 56.1066 84.4907C55.4737 83.5525 55.1572 82.4212 55.1572 81.0967C55.1572 81.0415 55.1572 80.9863 55.1572 80.9311C55.1723 80.8621 55.1798 80.8001 55.1798 80.7449C55.2401 79.241 55.6922 77.9993 56.536 77.0197C57.3949 76.0264 58.5552 75.2814 60.0169 74.7847C61.4936 74.288 63.1813 74.0396 65.08 74.0396H70.5726L70.8664 72.5082C70.8815 72.4254 70.889 72.3219 70.889 72.1978C70.9041 72.0736 70.9116 71.9563 70.9116 71.846C70.9116 71.4045 70.7911 70.9906 70.55 70.6043C70.3089 70.2179 69.9472 69.9144 69.465 69.6937C68.9979 69.4591 68.4027 69.3418 67.6794 69.3418C67.0766 69.3418 66.5492 69.4246 66.0971 69.5902C65.6602 69.7558 65.2985 69.9834 65.0122 70.2731C64.7259 70.5629 64.53 70.9009 64.4245 71.2872H57.6662C57.8319 70.1559 58.3141 69.0797 59.1128 68.0587C59.9114 67.0378 61.0491 66.21 62.5259 65.5753C64.0177 64.9269 65.8862 64.6027 68.1314 64.6027C70.1205 64.6027 71.8383 64.8855 73.285 65.4512C74.7466 66.0168 75.8768 66.8446 76.6754 67.9346C77.4741 69.0245 77.8734 70.3697 77.8734 71.9701C77.8734 72.2599 77.8508 72.591 77.8056 72.9635C77.7604 73.336 77.7001 73.7085 77.6248 74.081L75.1158 87.0362H68.3801L68.9451 84.2217H68.5835C68.2972 84.7321 67.8753 85.2288 67.3177 85.7117C66.7752 86.1946 66.0896 86.5947 65.2608 86.912C64.4321 87.2155 63.4526 87.3673 62.3224 87.3673ZM62.345 80.2689C62.345 80.7656 62.4731 81.2002 62.7293 81.5727C62.9854 81.9452 63.3396 82.2418 63.7916 82.4626C64.2437 82.6695 64.7636 82.773 65.3512 82.773C66.3307 82.773 67.2122 82.5109 67.9958 81.9866C68.7794 81.4485 69.2541 80.7587 69.4198 79.9171L69.8719 77.6199H66.0519C64.8464 77.6199 63.9272 77.8751 63.2944 78.3856C62.6615 78.8961 62.345 79.5239 62.345 80.2689Z" fill="white" fill-opacity="0.3"/>
<path d="M37.4364 87.036H30L35.4474 58.7872H56.0162L54.9539 64.2507H41.844L40.5331 71.0594H52.4901L51.473 76.3366H39.5159L37.4364 87.036Z" fill="white" fill-opacity="0.3"/>
</g>
<g filter="url(#filter1_f_1393_2771)">
<path d="M271.311 72.0974C268.899 69.8139 268.472 65.5477 268.563 63.3963C268.571 63.1839 268.479 62.98 268.309 62.8529C268.107 62.7028 267.835 62.6888 267.62 62.8174L267.606 62.8254C267.373 62.9643 267.254 63.2337 267.281 63.5037C267.435 65.0378 267.172 68.1096 265.096 71.0427C262.879 74.1738 258.52 75.1387 256.393 75.2521C256.237 75.2604 256.09 75.3227 255.98 75.4324C255.74 75.6705 255.74 76.0581 255.98 76.2962L256.006 76.3225C256.101 76.4165 256.222 76.4787 256.353 76.5025C258.51 76.8935 262.913 78.0642 264.792 79.9325C266.665 81.7934 267.276 86.0481 267.362 88.1494C267.368 88.2916 267.426 88.4263 267.527 88.5266L267.546 88.5453C267.773 88.7715 268.148 88.7448 268.341 88.4887C268.4 88.4113 268.435 88.3207 268.446 88.2243C268.678 86.1452 269.634 81.6839 271.766 79.3298C273.834 77.0455 277.699 76.4747 279.647 76.4639C279.839 76.4628 280.021 76.3759 280.136 76.2224C280.296 76.0104 280.296 75.7182 280.136 75.5062L280.129 75.4963C280.017 75.348 279.845 75.2597 279.66 75.249C277.708 75.1365 273.73 74.3872 271.311 72.0974Z" fill="white"/>
</g>
<g filter="url(#filter2_f_1393_2771)">
<path d="M257.134 63.1877C256.032 62.0728 255.841 59.9846 255.885 58.9451C255.889 58.8516 255.85 58.7618 255.777 58.7035C255.682 58.6279 255.549 58.6209 255.447 58.6861L255.44 58.6902C255.339 58.7546 255.288 58.8733 255.3 58.9925C255.374 59.7303 255.262 61.2372 254.309 62.6754C253.305 64.1895 251.337 64.6607 250.366 64.7192C250.287 64.724 250.213 64.7569 250.159 64.8144C250.051 64.9284 250.051 65.1063 250.159 65.2203L250.172 65.2343C250.218 65.2835 250.279 65.3164 250.345 65.3293C251.329 65.5212 253.319 66.0891 254.171 66.9933C255.025 67.9006 255.302 69.9794 255.339 70.9959C255.342 71.0576 255.366 71.1166 255.408 71.1615L255.416 71.1702C255.52 71.2809 255.7 71.2683 255.788 71.1441C255.812 71.1098 255.826 71.0705 255.831 71.0287C255.935 70.0223 256.369 67.847 257.34 66.7006C258.275 65.5976 260.017 65.3171 260.907 65.3087C261.004 65.3078 261.095 65.2626 261.151 65.1837C261.221 65.084 261.221 64.9507 261.151 64.8511L261.147 64.8459C261.093 64.7695 261.007 64.7236 260.914 64.7175C260.021 64.6597 258.227 64.2937 257.134 63.1877Z" fill="white"/>
</g>
<g filter="url(#filter3_f_1393_2771)">
<path fill-rule="evenodd" clip-rule="evenodd" d="M255.364 58.5555C255.522 58.4547 255.726 58.4655 255.873 58.5823C255.986 58.6726 256.046 58.8105 256.04 58.9516C256.019 59.4599 256.055 60.2279 256.231 61.0038C256.408 61.7821 256.722 62.5507 257.244 63.0788C257.768 63.6088 258.466 63.9666 259.149 64.199C259.832 64.4312 260.49 64.5348 260.924 64.5629C261.061 64.5718 261.191 64.6399 261.274 64.7565L261.147 64.8459L261.274 64.7565L261.277 64.7617C261.386 64.915 261.386 65.1198 261.277 65.273C261.191 65.395 261.052 65.4622 260.909 65.4636C260.476 65.4677 259.834 65.5381 259.187 65.7419C258.539 65.9461 257.9 66.2797 257.459 66.8008C256.994 67.3497 256.65 68.1559 256.409 68.9616C256.169 69.7642 256.036 70.55 255.985 71.0447C255.978 71.1127 255.954 71.1773 255.914 71.2334C255.77 71.4376 255.475 71.4584 255.303 71.2764L255.295 71.2677L255.408 71.1615L255.295 71.2677C255.227 71.1947 255.188 71.0997 255.185 71.0016C255.166 70.5015 255.089 69.738 254.911 68.9895C254.731 68.2351 254.456 67.5223 254.058 67.0995C253.657 66.6738 252.974 66.3159 252.252 66.0388C251.535 65.7636 250.801 65.5759 250.316 65.4814L250.345 65.3293L250.316 65.4814C250.218 65.4624 250.128 65.4139 250.059 65.3404L250.172 65.2342L250.059 65.3404L250.046 65.3265C249.882 65.1529 249.882 64.8819 250.046 64.7082C250.129 64.6204 250.241 64.5716 250.356 64.5646C250.826 64.5363 251.544 64.4073 252.265 64.1006C252.986 63.794 253.7 63.314 254.18 62.5899C255.109 61.1871 255.217 59.7177 255.146 59.0079C255.129 58.8369 255.202 58.6586 255.357 58.5596L255.364 58.5555ZM255.68 58.8247C255.637 58.7903 255.577 58.7871 255.53 58.8168L255.524 58.8209C255.477 58.8506 255.448 58.9098 255.454 58.977C255.531 59.7428 255.414 61.2872 254.438 62.761C253.914 63.551 253.143 64.0637 252.386 64.3857C251.629 64.7078 250.877 64.8437 250.375 64.8739C250.333 64.8764 250.297 64.8935 250.272 64.9206C250.22 64.9749 250.22 65.0598 250.272 65.1141L250.159 65.2203L250.272 65.1141L250.285 65.1281C250.308 65.1531 250.34 65.1703 250.375 65.1773C250.874 65.2746 251.627 65.4668 252.363 65.7496C253.095 66.0305 253.833 66.4086 254.284 66.8871C254.74 67.3716 255.03 68.1518 255.212 68.9178C255.396 69.6896 255.475 70.4738 255.494 70.9902C255.495 71.0154 255.505 71.0384 255.521 71.0553L255.529 71.064L255.416 71.1702L255.529 71.064C255.566 71.1034 255.63 71.0989 255.661 71.0547C255.67 71.0422 255.675 71.0283 255.677 71.0128C255.73 70.501 255.866 69.696 256.112 68.8728C256.357 68.0526 256.716 67.198 257.222 66.6005C257.716 66.0185 258.415 65.6604 259.094 65.4464C259.774 65.2321 260.448 65.1581 260.906 65.1538C260.955 65.1533 260.999 65.1302 261.024 65.0943C261.057 65.0482 261.057 64.9865 261.024 64.9404L261.021 64.9353C260.995 64.8992 260.953 64.8753 260.904 64.8721C260.445 64.8424 259.76 64.7341 259.049 64.4923C258.339 64.2508 257.593 63.8726 257.024 63.2966C256.444 62.7098 256.112 61.8769 255.929 61.0725C255.745 60.2657 255.708 59.4698 255.731 58.9385C255.732 58.8926 255.713 58.851 255.68 58.8247Z" fill="white"/>
</g>
<g filter="url(#filter4_f_1393_2771)">
<path d="M253.352 86.5036C251.746 85.0048 251.46 82.2063 251.52 80.7908C251.526 80.6483 251.463 80.5114 251.348 80.4269C251.215 80.3291 251.036 80.32 250.894 80.4037L250.885 80.4088C250.728 80.501 250.648 80.6817 250.666 80.8627C250.767 81.873 250.59 83.8871 249.209 85.8105C247.729 87.87 244.819 88.5033 243.403 88.5769C243.301 88.5821 243.206 88.6224 243.133 88.6933C242.973 88.8501 242.973 89.1079 243.133 89.2648L243.151 89.2818C243.213 89.3425 243.292 89.3825 243.377 89.3978C244.814 89.6541 247.752 90.4237 249.006 91.6524C250.253 92.8742 250.661 95.6664 250.719 97.0485C250.723 97.1442 250.763 97.2347 250.831 97.3018L250.844 97.3142C250.995 97.4625 251.242 97.4449 251.371 97.2766C251.411 97.2247 251.435 97.1637 251.443 97.0988C251.598 95.7314 252.235 92.8024 253.655 91.2564C255.036 89.7534 257.617 89.3792 258.914 89.373C259.039 89.3724 259.158 89.3161 259.234 89.2165C259.341 89.0764 259.341 88.8817 259.234 88.7415L259.229 88.735C259.155 88.6388 259.043 88.5817 258.922 88.5749C257.623 88.5018 254.967 88.0101 253.352 86.5036Z" fill="white"/>
</g>
<g filter="url(#filter5_f_1393_2771)">
<path fill-rule="evenodd" clip-rule="evenodd" d="M250.815 80.2701C251.011 80.155 251.257 80.1676 251.44 80.3021C251.598 80.4186 251.682 80.6057 251.674 80.7973C251.645 81.4928 251.701 82.5312 251.961 83.5786C252.223 84.6277 252.685 85.6695 253.458 86.3904C254.242 87.1218 255.285 87.6123 256.301 87.9289C257.316 88.2451 258.293 88.3844 258.931 88.4202C259.095 88.4295 259.25 88.5073 259.352 88.6409L259.357 88.6473L259.234 88.7415L259.357 88.6473C259.507 88.8431 259.507 89.115 259.357 89.3107C259.25 89.4501 259.086 89.5271 258.915 89.5279C258.278 89.531 257.323 89.6246 256.359 89.9023C255.393 90.1804 254.433 90.6389 253.769 91.3612C253.081 92.1101 252.575 93.2043 252.222 94.2925C251.869 95.378 251.673 96.4418 251.596 97.1163C251.586 97.2086 251.551 97.2962 251.494 97.3708C251.309 97.613 250.953 97.6383 250.735 97.4248L250.723 97.4125L250.831 97.3018L250.723 97.4125C250.625 97.3171 250.57 97.189 250.565 97.055C250.536 96.3727 250.421 95.3402 250.159 94.3292C249.895 93.3128 249.49 92.3436 248.898 91.7631C248.296 91.1737 247.275 90.6832 246.209 90.3066C245.147 89.9318 244.061 89.6773 243.35 89.5503C243.234 89.5297 243.127 89.4755 243.042 89.3924L243.025 89.3754C242.803 89.1578 242.803 88.8002 243.025 88.5826C243.125 88.484 243.258 88.4293 243.394 88.4222C244.088 88.3862 245.153 88.2124 246.226 87.7941C247.299 87.3756 248.366 86.7173 249.083 85.7202C250.438 83.8327 250.61 81.8579 250.512 80.8781C250.489 80.6443 250.592 80.4017 250.807 80.2753M250.807 80.2753L250.815 80.2701L250.815 80.2701M251.256 80.5518C251.173 80.4906 251.061 80.4849 250.972 80.5372L250.964 80.5424L250.885 80.4088L250.964 80.5424C250.865 80.6003 250.808 80.719 250.82 80.8474C250.924 81.888 250.742 83.9416 249.334 85.9009C248.571 86.9632 247.444 87.6513 246.338 88.0828C245.232 88.5144 244.134 88.6941 243.411 88.7316C243.345 88.735 243.286 88.7608 243.242 88.8039C243.143 88.9 243.143 89.058 243.242 89.1541L243.133 89.2648L243.242 89.1541L243.259 89.1711C243.298 89.2095 243.349 89.2354 243.404 89.2453C244.129 89.3747 245.232 89.6331 246.312 90.0144C247.387 90.3939 248.462 90.9025 249.115 91.5418C249.769 92.1831 250.192 93.2208 250.459 94.2515C250.727 95.2875 250.845 96.3422 250.874 97.042C250.876 97.0995 250.9 97.1524 250.939 97.1912L250.952 97.2035L250.844 97.3142L250.952 97.2035C251.037 97.2868 251.176 97.2769 251.248 97.1824C251.27 97.1532 251.284 97.1188 251.288 97.0813C251.367 96.3885 251.567 95.3041 251.927 94.1967C252.286 93.0921 252.809 91.9486 253.541 91.1516C254.258 90.3708 255.279 89.8907 256.273 89.6045C257.269 89.3178 258.253 89.2213 258.913 89.2181C258.993 89.2177 259.065 89.1822 259.111 89.1224C259.176 89.0378 259.176 88.9203 259.111 88.8357L259.106 88.8292L259.229 88.735L259.106 88.8292C259.061 88.7703 258.991 88.734 258.914 88.7296C258.252 88.6924 257.251 88.5492 256.209 88.2247C255.169 87.9005 254.077 87.3919 253.246 86.6169C252.413 85.839 251.929 84.7322 251.661 83.6534C251.392 82.5729 251.334 81.5044 251.365 80.7843C251.369 80.6909 251.328 80.6043 251.256 80.5518Z" fill="white"/>
</g>
<g filter="url(#filter6_b_1393_2771)">
<path fill-rule="evenodd" clip-rule="evenodd" d="M277.376 53C289.872 53 300 63.2868 300 75.9779C300 88.669 289.872 98.9558 277.376 98.9558C276.484 98.9558 275.3 98.9558 274.385 98.9558C283.725 95.7093 290.793 86.5621 290.793 75.9779C290.793 65.3937 283.725 56.2443 274.385 53C275.3 53 276.484 53 277.376 53Z" fill="white"/>
<path d="M277.376 53.5C289.588 53.5 299.5 63.5556 299.5 75.9779C299.5 88.4002 289.588 98.4558 277.376 98.4558L276.926 98.4558C285.254 94.5186 291.293 85.8669 291.293 75.9779C291.293 66.0893 285.254 57.436 276.927 53.5L277.376 53.5Z" stroke="white"/>
</g>
<path d="M260.706 76.6636L260.526 75.2686L268.176 65.0985H270.066V65.3235L260.706 76.6636ZM249.681 88.0487V87.8237L259.761 75.5836L259.941 77.0236L251.616 88.0487H249.681ZM266.871 88.3637C266.181 88.3637 265.581 88.2287 265.071 87.9587C264.591 87.6887 264.141 87.2087 263.721 86.5187C263.331 85.8287 262.866 84.8537 262.326 83.5937L255.981 68.0685C255.831 67.6785 255.666 67.3785 255.486 67.1685C255.306 66.9285 255.021 66.7335 254.631 66.5835C254.241 66.4335 253.701 66.2985 253.011 66.1785L252.471 66.0885L252.651 65.0985H256.566L263.946 83.2787C264.366 84.2387 264.726 85.0037 265.026 85.5737C265.326 86.1437 265.626 86.5487 265.926 86.7887C266.256 87.0287 266.631 87.1487 267.051 87.1487C267.561 87.1487 268.026 87.0437 268.446 86.8337C268.896 86.5937 269.181 86.4587 269.301 86.4287L269.121 87.5537C268.911 87.7637 268.581 87.9437 268.131 88.0937C267.711 88.2737 267.291 88.3637 266.871 88.3637Z" fill="#FDFDFD"/>
<path d="M238.815 87.3738C240.135 87.3738 241.26 87.1338 242.19 86.6538C243.15 86.1738 243.975 85.5438 244.665 84.7638C245.355 83.9838 245.94 83.1437 246.42 82.2437L247.41 82.9637C246.84 84.0438 246.15 85.0188 245.34 85.8888C244.53 86.7288 243.585 87.3888 242.505 87.8688C241.425 88.3488 240.195 88.5888 238.815 88.5888C237.405 88.5888 236.115 88.3488 234.945 87.8688C233.805 87.3588 232.815 86.6538 231.975 85.7538C231.135 84.8238 230.49 83.7288 230.04 82.4687C229.59 81.2087 229.365 79.8137 229.365 78.2837C229.365 76.4537 229.65 74.7287 230.22 73.1086C230.82 71.4586 231.66 70.0036 232.74 68.7436C233.85 67.4536 235.155 66.4486 236.655 65.7286C238.155 65.0086 239.82 64.6486 241.65 64.6486C243.06 64.6486 244.245 64.8286 245.205 65.1886C246.195 65.5486 246.975 65.9386 247.545 66.3586C248.115 66.7486 248.46 67.0486 248.58 67.2586L247.95 70.7686H245.835L246.465 66.9886C246.885 67.1386 247.185 67.2886 247.365 67.4386C247.545 67.5886 247.635 67.7386 247.635 67.8886C247.665 68.0086 247.65 68.1286 247.59 68.2486C247.53 68.3686 247.47 68.4736 247.41 68.5636C247.17 68.0536 246.78 67.6036 246.24 67.2136C245.73 66.7936 245.085 66.4636 244.305 66.2236C243.555 65.9536 242.67 65.8186 241.65 65.8186C240.39 65.8186 239.22 66.0436 238.14 66.4936C237.09 66.9436 236.13 67.5586 235.26 68.3386C234.42 69.1186 233.7 70.0336 233.1 71.0836C232.53 72.1336 232.08 73.2736 231.75 74.5037C231.45 75.7037 231.3 76.9637 231.3 78.2837C231.3 80.0837 231.585 81.6737 232.155 83.0537C232.755 84.4338 233.61 85.4988 234.72 86.2488C235.86 86.9988 237.225 87.3738 238.815 87.3738Z" fill="#FDFDFD"/>
<path d="M225.674 86.8787C225.674 87.3587 225.524 87.7487 225.224 88.0487C224.924 88.3487 224.519 88.4987 224.009 88.4987C223.559 88.4987 223.169 88.3487 222.839 88.0487C222.509 87.7487 222.344 87.3587 222.344 86.8787C222.344 86.3687 222.509 85.9787 222.839 85.7087C223.169 85.4087 223.559 85.2587 224.009 85.2587C224.519 85.2587 224.924 85.4087 225.224 85.7087C225.524 86.0087 225.674 86.3987 225.674 86.8787Z" fill="#FDFDFD"/>
<path d="M208.428 88.5888C206.268 88.5888 204.378 88.1688 202.758 87.3288C201.168 86.4888 199.923 85.2888 199.023 83.7287C198.153 82.1687 197.718 80.3237 197.718 78.1937C197.718 76.4837 198.033 74.8187 198.663 73.1986C199.293 71.5486 200.193 70.0786 201.363 68.7886C202.563 67.4686 203.988 66.4336 205.638 65.6836C207.318 64.9036 209.193 64.5135 211.263 64.5135C212.973 64.5135 214.413 64.7686 215.583 65.2786C216.753 65.7886 217.638 66.4936 218.238 67.3936C218.838 68.2936 219.138 69.2986 219.138 70.4086C219.138 71.7586 218.763 72.9436 218.013 73.9636C217.263 74.9537 216.153 75.7937 214.683 76.4837C213.243 77.1737 211.443 77.7287 209.283 78.1487C207.153 78.5687 204.678 78.8687 201.858 79.0487L202.218 76.7537C204.318 76.6037 206.073 76.3637 207.483 76.0337C208.923 75.6737 210.078 75.2387 210.948 74.7287C211.818 74.1886 212.448 73.5436 212.838 72.7936C213.228 72.0436 213.423 71.1736 213.423 70.1836C213.423 69.6436 213.333 69.1636 213.153 68.7436C212.973 68.3236 212.688 67.9936 212.298 67.7536C211.938 67.5136 211.458 67.3936 210.858 67.3936C209.988 67.3936 209.178 67.6786 208.428 68.2486C207.678 68.7886 207.018 69.5686 206.448 70.5886C205.878 71.5786 205.428 72.7486 205.098 74.0986C204.798 75.4487 204.648 76.9337 204.648 78.5537C204.648 80.0837 204.843 81.3587 205.233 82.3787C205.623 83.3987 206.178 84.1637 206.898 84.6738C207.648 85.1838 208.563 85.4388 209.643 85.4388C210.633 85.4388 211.503 85.2438 212.253 84.8538C213.033 84.4337 213.723 83.8637 214.323 83.1437C214.923 82.4237 215.433 81.6287 215.853 80.7587L218.148 82.3787C217.578 83.6087 216.828 84.6888 215.898 85.6188C214.998 86.5488 213.918 87.2838 212.658 87.8238C211.398 88.3338 209.988 88.5888 208.428 88.5888Z" fill="#FDFDFD"/>
<path d="M169.245 88.0488L172.62 69.1936C172.71 68.8036 172.665 68.5036 172.485 68.2936C172.335 68.0836 172.08 67.9186 171.72 67.7986C171.36 67.6786 170.895 67.5736 170.325 67.4836L169.785 67.3936L170.235 64.9636H179.685L178.65 71.2186L179.055 71.0836L176.085 88.0488H169.245ZM191.7 80.4437C191.58 81.0137 191.475 81.5387 191.385 82.0187C191.295 82.4687 191.22 82.8587 191.16 83.1887C191.13 83.5187 191.115 83.8037 191.115 84.0437C191.115 84.4337 191.22 84.7338 191.43 84.9438C191.67 85.1238 192.015 85.2138 192.465 85.2138C192.825 85.2138 193.17 85.1688 193.5 85.0788C193.83 84.9588 194.13 84.8538 194.4 84.7638C194.7 84.6437 194.91 84.5537 195.03 84.4937L194.535 87.0588C194.205 87.2988 193.785 87.5388 193.275 87.7788C192.795 87.9888 192.24 88.1538 191.61 88.2738C191.01 88.3938 190.35 88.4538 189.63 88.4538C188.61 88.4538 187.71 88.2888 186.93 87.9588C186.15 87.6288 185.535 87.1188 185.085 86.4288C184.665 85.7388 184.455 84.8838 184.455 83.8637C184.455 83.4737 184.47 83.0837 184.5 82.6937C184.56 82.2737 184.62 81.7787 184.68 81.2087C184.77 80.6387 184.905 79.9637 185.085 79.1837L186.165 73.5586C186.315 72.8686 186.42 72.2836 186.48 71.8036C186.57 71.3236 186.615 70.8886 186.615 70.4986C186.615 69.8386 186.45 69.3136 186.12 68.9236C185.82 68.5036 185.295 68.2936 184.545 68.2936C183.795 68.2936 183.03 68.5486 182.25 69.0586C181.47 69.5686 180.675 70.3336 179.865 71.3536C179.085 72.3436 178.29 73.5586 177.48 74.9987L176.76 73.3336C177.78 71.5336 178.815 69.9736 179.865 68.6536C180.945 67.3336 182.115 66.3136 183.375 65.5936C184.635 64.8736 186.06 64.5135 187.65 64.5135C189.51 64.5135 190.935 65.0086 191.925 65.9986C192.945 66.9586 193.455 68.2486 193.455 69.8686C193.455 70.3786 193.41 70.9786 193.32 71.6686C193.26 72.3286 193.125 73.1086 192.915 74.0086L191.7 80.4437Z" fill="#FDFDFD"/>
<path d="M161.82 71.8936L159.3 72.4336C159.15 71.3836 158.88 70.4836 158.49 69.7336C158.13 68.9836 157.635 68.4136 157.005 68.0236C156.405 67.6036 155.685 67.3936 154.845 67.3936C154.005 67.3936 153.225 67.6486 152.505 68.1586C151.815 68.6686 151.185 69.3586 150.615 70.2286C150.045 71.0986 149.565 72.0886 149.175 73.1986C148.785 74.2786 148.485 75.4187 148.275 76.6187C148.065 77.7887 147.96 78.9287 147.96 80.0387C147.96 81.2087 148.065 82.1687 148.275 82.9187C148.515 83.6687 148.845 84.2387 149.265 84.6288C149.715 84.9888 150.255 85.1688 150.885 85.1688C151.695 85.1688 152.445 84.8838 153.135 84.3137C153.825 83.7437 154.515 82.9187 155.205 81.8387C155.925 80.7287 156.66 79.3937 157.41 77.8337L158.67 79.0487C157.68 81.0287 156.705 82.7387 155.745 84.1787C154.815 85.5888 153.795 86.6838 152.685 87.4638C151.575 88.2138 150.24 88.5888 148.68 88.5888C147.12 88.5888 145.755 88.2438 144.585 87.5538C143.415 86.8338 142.5 85.8138 141.84 84.4937C141.21 83.1737 140.895 81.5537 140.895 79.6337C140.895 78.0437 141.09 76.5137 141.48 75.0437C141.9 73.5736 142.485 72.2086 143.235 70.9486C143.985 69.6586 144.9 68.5336 145.98 67.5736C147.06 66.6136 148.275 65.8636 149.625 65.3236C151.005 64.7836 152.505 64.5135 154.125 64.5135C155.685 64.5135 156.99 64.8436 158.04 65.5036C159.12 66.1636 159.96 67.0486 160.56 68.1586C161.19 69.2386 161.61 70.4836 161.82 71.8936ZM165.69 64.7386L162.945 80.2187C162.855 80.8187 162.765 81.3737 162.675 81.8837C162.585 82.3637 162.51 82.7837 162.45 83.1437C162.42 83.5037 162.405 83.7887 162.405 83.9987C162.405 84.4187 162.51 84.7338 162.72 84.9438C162.96 85.1238 163.29 85.2138 163.71 85.2138C164.28 85.2138 164.805 85.1238 165.285 84.9438C165.795 84.7338 166.155 84.5837 166.365 84.4937L165.87 87.1038C165.57 87.3138 165.165 87.5238 164.655 87.7338C164.175 87.9438 163.62 88.1088 162.99 88.2288C162.39 88.3788 161.745 88.4538 161.055 88.4538C160.035 88.4538 159.135 88.2738 158.355 87.9138C157.605 87.5538 157.02 87.0288 156.6 86.3388C156.18 85.6488 155.97 84.7787 155.97 83.7287C155.97 83.4587 155.985 83.1737 156.015 82.8737C156.075 82.5737 156.15 82.1987 156.24 81.7487L155.745 82.7837L158.31 68.1136H158.715L161.46 64.7386H165.69Z" fill="#FDFDFD"/>
<path d="M131.452 62.9621C131.512 62.6021 131.467 62.3171 131.317 62.1071C131.167 61.8971 130.912 61.7321 130.552 61.6121C130.192 61.4921 129.727 61.3721 129.157 61.2521L128.662 61.1621L129.112 58.7771H138.922L134.752 80.4436C134.662 81.0136 134.572 81.5236 134.482 81.9737C134.422 82.4237 134.362 82.8137 134.302 83.1437C134.272 83.4737 134.257 83.7587 134.257 83.9987C134.257 84.4187 134.362 84.7337 134.572 84.9437C134.812 85.1237 135.157 85.2137 135.607 85.2137C135.997 85.2137 136.357 85.1687 136.687 85.0787C137.017 84.9587 137.317 84.8537 137.587 84.7637C137.887 84.6437 138.097 84.5537 138.217 84.4937L137.722 87.1037C137.422 87.3137 137.032 87.5237 136.552 87.7337C136.072 87.9437 135.517 88.1087 134.887 88.2287C134.257 88.3787 133.582 88.4537 132.862 88.4537C131.842 88.4537 130.927 88.2887 130.117 87.9587C129.337 87.5987 128.722 87.0737 128.272 86.3837C127.822 85.6937 127.597 84.8387 127.597 83.8187C127.597 83.4287 127.612 83.0387 127.642 82.6487C127.702 82.2287 127.777 81.7337 127.867 81.1636C127.987 80.5936 128.107 79.9186 128.227 79.1386L131.452 62.9621Z" fill="#FDFDFD"/>
<path d="M118.151 88.5436C116.741 88.5436 115.511 88.3336 114.461 87.9136C113.411 87.4936 112.586 86.8486 111.986 85.9786C111.386 85.0786 111.086 83.9236 111.086 82.5136C111.086 82.0936 111.116 81.6286 111.176 81.1185C111.236 80.5785 111.311 80.0235 111.401 79.4535C111.491 78.8835 111.566 78.2985 111.626 77.6985L113.651 65.8634L115.136 64.9634H126.071L125.576 67.6634H109.961L110.411 65.1884H110.591C111.341 65.1884 111.986 65.1284 112.526 65.0084C113.096 64.8584 113.561 64.6184 113.921 64.2884C114.311 63.9284 114.566 63.4484 114.686 62.8484L115.541 58.7533H121.706L118.376 78.0585C118.256 78.6585 118.151 79.2735 118.061 79.9035C117.971 80.5035 117.896 81.0586 117.836 81.5686C117.806 82.0486 117.791 82.4686 117.791 82.8286C117.791 83.7586 118.001 84.4186 118.421 84.8086C118.841 85.1986 119.456 85.3936 120.266 85.3936C120.746 85.3936 121.196 85.3486 121.616 85.2586C122.066 85.1386 122.456 85.0186 122.786 84.8986C123.146 84.7486 123.401 84.6436 123.551 84.5836L123.146 87.4636C122.606 87.7036 121.916 87.9436 121.076 88.1836C120.236 88.4236 119.261 88.5436 118.151 88.5436Z" fill="#FDFDFD"/>
<path d="M96.1476 88.5437C94.5276 88.5437 93.0576 88.3787 91.7376 88.0487C90.4176 87.7187 89.2776 87.3137 88.3176 86.8337C87.3576 86.3237 86.5775 85.7987 85.9775 85.2587L86.8325 80.6686H91.9626L90.9276 86.0687C90.5076 85.8887 90.1926 85.6487 89.9826 85.3487C89.8026 85.0187 89.7126 84.6587 89.7126 84.2687C89.7126 83.8787 89.7876 83.5037 89.9376 83.1437C90.3276 83.6837 90.8076 84.1487 91.3776 84.5387C91.9776 84.9287 92.6676 85.2437 93.4476 85.4837C94.2276 85.6937 95.1126 85.7987 96.1026 85.7987C96.9726 85.7987 97.7077 85.6637 98.3077 85.3937C98.9377 85.1237 99.4027 84.7487 99.7027 84.2687C100.033 83.7887 100.198 83.2187 100.198 82.5587C100.198 82.1087 100.078 81.7187 99.8377 81.3887C99.5977 81.0287 99.2527 80.7136 98.8027 80.4436C98.3527 80.1436 97.8277 79.8736 97.2277 79.6336C96.6576 79.3636 96.0426 79.0786 95.3826 78.7786C94.3626 78.3586 93.3426 77.8636 92.3226 77.2936C91.3326 76.7236 90.5076 76.0036 89.8476 75.1336C89.2176 74.2636 88.9026 73.1536 88.9026 71.8036C88.9026 70.2435 89.3076 68.9385 90.1176 67.8885C90.9276 66.8085 92.0526 65.9985 93.4926 65.4585C94.9626 64.8885 96.6726 64.6035 98.6227 64.6035C99.9727 64.6035 101.188 64.7235 102.268 64.9635C103.378 65.2035 104.338 65.5335 105.148 65.9535C105.958 66.3735 106.573 66.8385 106.993 67.3485L106.273 71.4886H101.278L102.043 67.0335C102.283 67.0635 102.523 67.2285 102.763 67.5285C103.003 67.8285 103.168 68.1735 103.258 68.5635C103.378 68.9235 103.333 69.2835 103.123 69.6435C102.883 69.1335 102.538 68.7135 102.088 68.3835C101.668 68.0235 101.158 67.7535 100.558 67.5735C99.9577 67.3935 99.2977 67.3035 98.5777 67.3035C97.3177 67.3035 96.3726 67.5585 95.7426 68.0685C95.1126 68.5785 94.7976 69.2535 94.7976 70.0935C94.7976 70.6935 95.0226 71.2186 95.4726 71.6686C95.9226 72.0886 96.5226 72.4786 97.2727 72.8386C98.0227 73.1986 98.8327 73.5736 99.7027 73.9636C100.753 74.3836 101.773 74.8786 102.763 75.4486C103.753 76.0186 104.578 76.7236 105.238 77.5636C105.898 78.4036 106.228 79.4836 106.228 80.8036C106.228 82.3937 105.823 83.7737 105.013 84.9437C104.203 86.1137 103.048 87.0137 101.548 87.6437C100.048 88.2437 98.2477 88.5437 96.1476 88.5437Z" fill="#FDFDFD"/>
<path d="M79.5529 71.8936L77.0329 72.4336C76.8829 71.3836 76.6129 70.4836 76.2229 69.7336C75.8629 68.9836 75.3679 68.4136 74.7378 68.0236C74.1378 67.6036 73.4178 67.3936 72.5778 67.3936C71.7378 67.3936 70.9578 67.6486 70.2378 68.1586C69.5478 68.6686 68.9178 69.3586 68.3478 70.2286C67.7778 71.0986 67.2978 72.0886 66.9078 73.1986C66.5178 74.2786 66.2178 75.4187 66.0078 76.6187C65.7978 77.7887 65.6928 78.9287 65.6928 80.0387C65.6928 81.2087 65.7978 82.1687 66.0078 82.9187C66.2478 83.6687 66.5778 84.2387 66.9978 84.6288C67.4478 84.9888 67.9878 85.1688 68.6178 85.1688C69.4278 85.1688 70.1778 84.8838 70.8678 84.3137C71.5578 83.7437 72.2478 82.9187 72.9378 81.8387C73.6578 80.7287 74.3928 79.3937 75.1429 77.8337L76.4029 79.0487C75.4129 81.0287 74.4378 82.7387 73.4778 84.1787C72.5478 85.5888 71.5278 86.6838 70.4178 87.4638C69.3078 88.2138 67.9728 88.5888 66.4128 88.5888C64.8527 88.5888 63.4877 88.2438 62.3177 87.5538C61.1477 86.8338 60.2327 85.8138 59.5727 84.4937C58.9427 83.1737 58.6277 81.5537 58.6277 79.6337C58.6277 78.0437 58.8227 76.5137 59.2127 75.0437C59.6327 73.5736 60.2177 72.2086 60.9677 70.9486C61.7177 69.6586 62.6327 68.5336 63.7127 67.5736C64.7927 66.6136 66.0078 65.8636 67.3578 65.3236C68.7378 64.7836 70.2378 64.5135 71.8578 64.5135C73.4178 64.5135 74.7228 64.8436 75.7729 65.5036C76.8529 66.1636 77.6929 67.0486 78.2929 68.1586C78.9229 69.2386 79.3429 70.4836 79.5529 71.8936ZM83.4229 64.7386L80.6779 80.2187C80.5879 80.8187 80.4979 81.3737 80.4079 81.8837C80.3179 82.3637 80.2429 82.7837 80.1829 83.1437C80.1529 83.5037 80.1379 83.7887 80.1379 83.9987C80.1379 84.4187 80.2429 84.7338 80.4529 84.9438C80.6929 85.1238 81.0229 85.2138 81.4429 85.2138C82.0129 85.2138 82.5379 85.1238 83.0179 84.9438C83.5279 84.7338 83.8879 84.5837 84.0979 84.4937L83.6029 87.1038C83.3029 87.3138 82.8979 87.5238 82.3879 87.7338C81.9079 87.9438 81.3529 88.1088 80.7229 88.2288C80.1229 88.3788 79.4779 88.4538 78.7879 88.4538C77.7679 88.4538 76.8679 88.2738 76.0879 87.9138C75.3379 87.5538 74.7528 87.0288 74.3328 86.3388C73.9128 85.6488 73.7028 84.7787 73.7028 83.7287C73.7028 83.4587 73.7178 83.1737 73.7478 82.8737C73.8078 82.5737 73.8828 82.1987 73.9728 81.7487L73.4778 82.7837L76.0429 68.1136H76.4479L79.1929 64.7386H83.4229Z" fill="#FDFDFD"/>
<path d="M43.9346 70.7235C45.2246 70.6635 46.4546 70.6185 47.6246 70.5885C48.7946 70.5285 49.9346 70.4685 51.0446 70.4085C52.1847 70.3185 53.3097 70.2285 54.4197 70.1385L53.7447 73.9635C52.6947 73.8435 51.6147 73.7535 50.5046 73.6935C49.3946 73.6035 48.2546 73.5285 47.0846 73.4685C45.9446 73.4085 44.7446 73.3635 43.4846 73.3335L43.9346 70.7235ZM30.9294 88.0486L31.4244 85.5736H31.8745C32.7145 85.5736 33.4345 85.4686 34.0345 85.2586C34.6645 85.0486 35.0395 84.6136 35.1595 83.9536L39.3445 60.1934C39.4645 59.5333 39.2545 59.0983 38.7145 58.8883C38.1745 58.6783 37.4695 58.5733 36.5995 58.5733H36.1495L36.5995 56.0983H60.5847L59.0097 64.9184H55.9497L56.1747 61.0484C56.2047 60.5084 56.0547 60.0884 55.7247 59.7883C55.4247 59.4883 54.9447 59.2933 54.2847 59.2033C53.6247 59.0833 52.7547 59.0233 51.6747 59.0233H46.7696L42.3596 83.9986C42.2696 84.5086 42.3896 84.8836 42.7196 85.1236C43.0496 85.3336 43.4846 85.4686 44.0246 85.5286C44.5646 85.5586 45.0896 85.5736 45.5996 85.5736H46.3646L45.9146 88.0486H30.9294Z" fill="#FDFDFD"/>
<defs>
<filter id="filter0_f_1393_2771" x="0" y="27.2971" width="306.058" height="90.1735" filterUnits="userSpaceOnUse" color-interpolation-filters="sRGB">
<feFlood flood-opacity="0" result="BackgroundImageFix"/>
<feBlend mode="normal" in="SourceGraphic" in2="BackgroundImageFix" result="shape"/>
<feGaussianBlur stdDeviation="15" result="effect1_foregroundBlur_1393_2771"/>
</filter>
<filter id="filter1_f_1393_2771" x="205.8" y="12.7298" width="124.456" height="125.969" filterUnits="userSpaceOnUse" color-interpolation-filters="sRGB">
<feFlood flood-opacity="0" result="BackgroundImageFix"/>
<feBlend mode="normal" in="SourceGraphic" in2="BackgroundImageFix" result="shape"/>
<feGaussianBlur stdDeviation="25" result="effect1_foregroundBlur_1393_2771"/>
</filter>
<filter id="filter2_f_1393_2771" x="230.078" y="38.6416" width="51.1255" height="52.6042" filterUnits="userSpaceOnUse" color-interpolation-filters="sRGB">
<feFlood flood-opacity="0" result="BackgroundImageFix"/>
<feBlend mode="normal" in="SourceGraphic" in2="BackgroundImageFix" result="shape"/>
<feGaussianBlur stdDeviation="10" result="effect1_foregroundBlur_1393_2771"/>
</filter>
<filter id="filter3_f_1393_2771" x="214.923" y="23.4867" width="81.4353" height="82.9141" filterUnits="userSpaceOnUse" color-interpolation-filters="sRGB">
<feFlood flood-opacity="0" result="BackgroundImageFix"/>
<feBlend mode="normal" in="SourceGraphic" in2="BackgroundImageFix" result="shape"/>
<feGaussianBlur stdDeviation="17.5" result="effect1_foregroundBlur_1393_2771"/>
</filter>
<filter id="filter4_f_1393_2771" x="203.013" y="40.3467" width="96.3013" height="97.0683" filterUnits="userSpaceOnUse" color-interpolation-filters="sRGB">
<feFlood flood-opacity="0" result="BackgroundImageFix"/>
<feBlend mode="normal" in="SourceGraphic" in2="BackgroundImageFix" result="shape"/>
<feGaussianBlur stdDeviation="20" result="effect1_foregroundBlur_1393_2771"/>
</filter>
<filter id="filter5_f_1393_2771" x="162.858" y="0.191772" width="176.611" height="177.378" filterUnits="userSpaceOnUse" color-interpolation-filters="sRGB">
<feFlood flood-opacity="0" result="BackgroundImageFix"/>
<feBlend mode="normal" in="SourceGraphic" in2="BackgroundImageFix" result="shape"/>
<feGaussianBlur stdDeviation="40" result="effect1_foregroundBlur_1393_2771"/>
</filter>
<filter id="filter6_b_1393_2771" x="270.385" y="49" width="33.6147" height="53.9558" filterUnits="userSpaceOnUse" color-interpolation-filters="sRGB">
<feFlood flood-opacity="0" result="BackgroundImageFix"/>
<feGaussianBlur in="BackgroundImageFix" stdDeviation="2"/>
<feComposite in2="SourceAlpha" operator="in" result="effect1_backgroundBlur_1393_2771"/>
<feBlend mode="normal" in="SourceGraphic" in2="effect1_backgroundBlur_1393_2771" result="shape"/>
</filter>
</defs>
</svg>
